HIERARCHY
ROOT hip
{
  OFFSET -6.43936 95.4739 -0.503092
  CHANNELS 6 Xposition Yposition Zposition Zrotation Xrotation Yrotation
  JOINT abdomen
  {
    OFFSET 0 7.2397 0
    CHANNELS 6 Xposition Yposition Zposition Zrotation Xrotation Yrotation
    JOINT chest
    {
      OFFSET 0 16.546 0
      CHANNELS 6 Xposition Yposition Zposition Zrotation Xrotation Yrotation
      JOINT neck
      {
        OFFSET 0 34.2149 0
        CHANNELS 6 Xposition Yposition Zposition Zrotation Xrotation Yrotation
        JOINT head
        {
          OFFSET 0 6.2923 0
          CHANNELS 6 Xposition Yposition Zposition Zrotation Xrotation Yrotation
          End Site
          {
            OFFSET 0 21.2161 0
          }
        }
      }
      JOINT lCollar
      {
        OFFSET 4.0639 26.6115 -1.1234
        CHANNELS 6 Xposition Yposition Zposition Zrotation Xrotation Yrotation
        JOINT lShldr
        {
          OFFSET 14.1772 0 0
          CHANNELS 6 Xposition Yposition Zposition Zrotation Xrotation Yrotation
          JOINT lForeArm
          {
            OFFSET 26.1234 0 0
            CHANNELS 6 Xposition Yposition Zposition Zrotation Xrotation Yrotation
            JOINT lHand
            {
              OFFSET 27.7188 0 0
              CHANNELS 6 Xposition Yposition Zposition Zrotation Xrotation Yrotation
              JOINT lThumb1
              {
                OFFSET 2.2979 -0.4685 1.8313
                CHANNELS 6 Xposition Yposition Zposition Zrotation Xrotation Yrotation
                JOINT lThumb2
                {
                  OFFSET 5.2953 0 0
                  CHANNELS 6 Xposition Yposition Zposition Zrotation Xrotation Yrotation
                  JOINT lThumb3
                  {
                    OFFSET 3.0181 0 0
                    CHANNELS 6 Xposition Yposition Zposition Zrotation Xrotation Yrotation
                    End Site
                    {
                      OFFSET 2.6294 0 0
                    }
                  }
                }
              }
              JOINT lIndex1
              {
                OFFSET 9.3793 0.2991 2.5924
                CHANNELS 6 Xposition Yposition Zposition Zrotation Xrotation Yrotation
                JOINT lIndex2
                {
                  OFFSET 4.3461 0 0
                  CHANNELS 6 Xposition Yposition Zposition Zrotation Xrotation Yrotation
                  JOINT lIndex3
                  {
                    OFFSET 2.1666 0 0
                    CHANNELS 6 Xposition Yposition Zposition Zrotation Xrotation Yrotation
                    End Site
                    {
                      OFFSET 2.2048 0 0
                    }
                  }
                }
              }
              JOINT lMid1
              {
                OFFSET 9.4769 0.8376 0.2947
                CHANNELS 6 Xposition Yposition Zposition Zrotation Xrotation Yrotation
                JOINT lMid2
                {
                  OFFSET 4.772 0 0
                  CHANNELS 6 Xposition Yposition Zposition Zrotation Xrotation Yrotation
                  JOINT lMid3
                  {
                    OFFSET 2.8722 0 0
                    CHANNELS 6 Xposition Yposition Zposition Zrotation Xrotation Yrotation
                    End Site
                    {
                      OFFSET 2.0959 0 0
                    }
                  }
                }
              }
              JOINT lRing1
              {
                OFFSET 8.6586 1.0176 -1.7016
                CHANNELS 6 Xposition Yposition Zposition Zrotation Xrotation Yrotation
                JOINT lRing2
                {
                  OFFSET 4.5461 0 0
                  CHANNELS 6 Xposition Yposition Zposition Zrotation Xrotation Yrotation
                  JOINT lRing3
                  {
                    OFFSET 2.506 0 0
                    CHANNELS 6 Xposition Yposition Zposition Zrotation Xrotation Yrotation
                    End Site
                    {
                      OFFSET 2.2023 0 0
                    }
                  }
                }
              }
              JOINT lPinky1
              {
                OFFSET 7.6901 0.6618 -3.9096
                CHANNELS 6 Xposition Yposition Zposition Zrotation Xrotation Yrotation
                JOINT lPinky2
                {
                  OFFSET 3.2119 0 0
                  CHANNELS 6 Xposition Yposition Zposition Zrotation Xrotation Yrotation
                  JOINT lPinky3
                  {
                    OFFSET 1.924 0 0
                    CHANNELS 6 Xposition Yposition Zposition Zrotation Xrotation Yrotation
                    End Site
                    {
                      OFFSET 1.7829 0 0
                    }
                  }
                }
              }
            }
          }
        }
      }
      JOINT rCollar
      {
        OFFSET -4.0677 26.6109 -1.1234
        CHANNELS 6 Xposition Yposition Zposition Zrotation Xrotation Yrotation
        JOINT rShldr
        {
          OFFSET -14.1772 0 0
          CHANNELS 6 Xposition Yposition Zposition Zrotation Xrotation Yrotation
          JOINT rForeArm
          {
            OFFSET -26.1234 0 0
            CHANNELS 6 Xposition Yposition Zposition Zrotation Xrotation Yrotation
            JOINT rHand
            {
              OFFSET -27.7188 0 0
              CHANNELS 6 Xposition Yposition Zposition Zrotation Xrotation Yrotation
              JOINT rThumb1
              {
                OFFSET -2.2979 -0.4684 1.8313
                CHANNELS 6 Xposition Yposition Zposition Zrotation Xrotation Yrotation
                JOINT rThumb2
                {
                  OFFSET -5.2953 0 0
                  CHANNELS 6 Xposition Yposition Zposition Zrotation Xrotation Yrotation
                  JOINT rThumb3
                  {
                    OFFSET -3.0181 0 0
                    CHANNELS 6 Xposition Yposition Zposition Zrotation Xrotation Yrotation
                    End Site
                    {
                      OFFSET -2.6294 0 0
                    }
                  }
                }
              }
              JOINT rIndex1
              {
                OFFSET -9.3793 0.2991 2.5924
                CHANNELS 6 Xposition Yposition Zposition Zrotation Xrotation Yrotation
                JOINT rIndex2
                {
                  OFFSET -4.3461 0 0
                  CHANNELS 6 Xposition Yposition Zposition Zrotation Xrotation Yrotation
                  JOINT rIndex3
                  {
                    OFFSET -2.1666 0 0
                    CHANNELS 6 Xposition Yposition Zposition Zrotation Xrotation Yrotation
                    End Site
                    {
                      OFFSET -2.2048 0 0
                    }
                  }
                }
              }
              JOINT rMid1
              {
                OFFSET -9.4769 0.8376 0.2947
                CHANNELS 6 Xposition Yposition Zposition Zrotation Xrotation Yrotation
                JOINT rMid2
                {
                  OFFSET -4.772 0 0
                  CHANNELS 6 Xposition Yposition Zposition Zrotation Xrotation Yrotation
                  JOINT rMid3
                  {
                    OFFSET -2.8722 0 0
                    CHANNELS 6 Xposition Yposition Zposition Zrotation Xrotation Yrotation
                    End Site
                    {
                      OFFSET -2.0959 0 0
                    }
                  }
                }
              }
              JOINT rRing1
              {
                OFFSET -8.6586 1.0176 -1.7016
                CHANNELS 6 Xposition Yposition Zposition Zrotation Xrotation Yrotation
                JOINT rRing2
                {
                  OFFSET -4.5461 0 0
                  CHANNELS 6 Xposition Yposition Zposition Zrotation Xrotation Yrotation
                  JOINT rRing3
                  {
                    OFFSET -2.506 0 0
                    CHANNELS 6 Xposition Yposition Zposition Zrotation Xrotation Yrotation
                    End Site
                    {
                      OFFSET -2.2023 0 0
                    }
                  }
                }
              }
              JOINT rPinky1
              {
                OFFSET -7.6901 0.6618 -3.9096
                CHANNELS 6 Xposition Yposition Zposition Zrotation Xrotation Yrotation
                JOINT rPinky2
                {
                  OFFSET -3.2119 0 0
                  CHANNELS 6 Xposition Yposition Zposition Zrotation Xrotation Yrotation
                  JOINT rPinky3
                  {
                    OFFSET -1.924 0 0
                    CHANNELS 6 Xposition Yposition Zposition Zrotation Xrotation Yrotation
                    End Site
                    {
                      OFFSET -1.7829 0 0
                    }
                  }
                }
              }
            }
          }
        }
      }
    }
  }
  JOINT lThigh
  {
    OFFSET 8.7379 -0.0029 0.0005
    CHANNELS 6 Xposition Yposition Zposition Zrotation Xrotation Yrotation
    JOINT lShin
    {
      OFFSET 0 -46.6676 0
      CHANNELS 6 Xposition Yposition Zposition Zrotation Xrotation Yrotation
      JOINT lFoot
      {
        OFFSET 0 -40.1476 0
        CHANNELS 6 Xposition Yposition Zposition Zrotation Xrotation Yrotation
        JOINT lToes
        {
          OFFSET 0 -8.8846 14.2294
          CHANNELS 6 Xposition Yposition Zposition Zrotation Xrotation Yrotation
          End Site
          {
            OFFSET 0 0 6.296
          }
        }
      }
    }
  }
  JOINT rThigh
  {
    OFFSET -8.7379 0.0029 -0.0005
    CHANNELS 6 Xposition Yposition Zposition Zrotation Xrotation Yrotation
    JOINT rShin
    {
      OFFSET 0 -46.6676 0
      CHANNELS 6 Xposition Yposition Zposition Zrotation Xrotation Yrotation
      JOINT rFoot
      {
        OFFSET 0 -40.1476 0
        CHANNELS 6 Xposition Yposition Zposition Zrotation Xrotation Yrotation
        JOINT rToes
        {
          OFFSET 0 -8.8846 14.2294
          CHANNELS 6 Xposition Yposition Zposition Zrotation Xrotation Yrotation
          End Site
          {
            OFFSET 0 0 6.296
          }
        }
      }
    }
  }
}
MOTION
Frames:	4
Frame Time:	0.0333333
24.0365 97.6797 0.788427 -8.30216 -4.36853 -6.63421 -1.77636e-15 7.2397 -8.88178e-16 -0.0786624 1.88184 -5.12103 -5.32907e-15 16.546 0 -0.664679 5.67746 -10.1443 -8.88178e-16 34.2149 1.77636e-15 0.705079 36.4708 0.145338 0 6.2923 0 8.35585 -2.24307 -1.20189 4.0639 26.6115 -1.1234 0.507687 -0.963439 7.62831 14.1772 -2.84217e-14 -8.88178e-16 -64.0089 37.497 -6.93431 26.1234 0 0 -0.496958 0.15785 -35.2423 27.7188 0 7.10543e-15 3.7812 -12.2467 -9.12947 2.2979 -0.4685 1.8313 47.2981 49.5842 -62.6585 5.2953 -1.42109e-14 0 -14.0999 -11.0437 -0.900844 3.0181 0 -7.10543e-15 25.0753 -0.474015 13.2292 9.3793 0.2991 2.5924 5.15621 -1.33149 0.596562 4.3461 0 0 -5.60218 0.219655 1.16289 2.1666 0 7.10543e-15 -9.7571 -0.16003 1.53196 9.4769 0.8376 0.2947 2.37535 -4.16987 1.23372 4.772 1.42109e-14 7.10543e-15 -20.2196 -0.827852 5.14533 2.8722 0 0 -16.2872 -0.487213 5.56473 8.6586 1.0176 -1.7016 -8.95027 2.11771 3.57592 4.5461 0 -7.10543e-15 -18.5763 -0.411736 2.51658 2.506 0 7.10543e-15 -11.8226 -0.112637 2.54748 7.6901 0.6618 -3.9096 -4.72922 -9.13056 3.3292 3.2119 7.10543e-15 1.42109e-14 -14.2772 -0.616408 4.91879 1.924 0 -7.10543e-15 -9.88036 -0.236568 4.95153 -4.0677 26.6109 -1.1234 1.0281 -2.9807 1.95695 -14.1772 0 -8.88178e-16 68.2536 11.0879 -9.91915 -26.1234 7.10543e-15 -7.10543e-15 0.358787 0.0783105 24.6239 -27.7188 0 3.55271e-15 6.8283 10.582 9.8579 -2.2979 -0.4684 1.8313 -48.4595 47.5076 64.4168 -5.2953 0 8.88178e-16 29.7935 -15.9453 -2.41045 -3.0181 0 1.11022e-16 -2.18168 -4.8926 -20.536 -9.3793 0.2991 2.5924 18.6737 -2.35193 -4.24577 -4.3461 0 1.77636e-15 40.9467 -2.34466 -7.01248 -2.1666 0 -8.88178e-16 45.0924 -3.0616 -6.99063 -9.4769 0.8376 0.2947 17.5317 -5.07253 -4.12094 -4.772 3.55271e-15 0 61.3493 -7.05917 -12.0234 -2.8722 1.42109e-14 0 57.4795 -6.19847 -12.7949 -8.6586 1.0176 -1.7016 29.6158 0.616412 -5.69612 -4.5461 0 -1.77636e-15 62.9454 -3.65254 -5.96325 -2.506 -1.42109e-14 0 56.2128 -2.9266 -6.35013 -7.6901 0.6618 -3.9096 24.6768 -10.2887 -5.26772 -3.2119 0 0 59.6063 -9.35204 -16.254 -1.924 -1.42109e-14 0 55.3273 -8.09229 -16.9032 8.7379 -0.0029 0.0005 3.06183 -2.48309 17.4529 0 -46.6676 0 3.02442 15.2256 -4.47098 -3.55271e-15 -40.1476 0 4.94554 -7.93566 6.26907 0 -8.8846 14.2294 0.0001 0 -1.59028e-15 -8.7379 0.0029 -0.0005 -1.27572 -41.6575 -12.0266 0 -46.6676 1.42109e-14 -7.5744 21.7601 8.23343 8.88178e-16 -40.1476 -7.10543e-15 0.109013 21.5703 -13.95 -3.55271e-15 -8.8846 14.2294 -3.97569e-16 -7.95139e-16 -0 
24.0854 97.6195 0.978971 -8.19899 -4.70455 -6.41135 0 7.2397 -1.77636e-15 -0.171618 1.92932 -5.24748 -3.55271e-15 16.546 0 -0.624022 5.77187 -10.3337 -1.77636e-15 34.2149 0 0.723352 36.495 0.144132 0 6.2923 1.42109e-14 8.50168 -1.70768 -1.27579 4.0639 26.6115 -1.1234 0.660215 -0.964608 7.69879 14.1772 -2.84217e-14 -8.88178e-16 -64.4517 38.0981 -6.4423 26.1234 -1.42109e-14 0 -0.498218 0.158754 -35.3462 27.7188 0 -7.10543e-15 3.57397 -11.9401 -9.40404 2.2979 -0.4685 1.8313 47.2981 49.5842 -62.6585 5.2953 0 0 -13.1315 -10.8158 -1.11276 3.0181 -1.42109e-14 -3.55271e-15 26.2077 -0.32856 12.803 9.3793 0.2991 2.5924 5.85687 -1.32502 0.467033 4.3461 1.42109e-14 -7.10543e-15 -4.29484 0.243108 0.89207 2.1666 0 7.10543e-15 -8.4502 -0.117998 1.26975 9.4769 0.8376 0.2947 2.78211 -4.16222 1.10323 4.772 0 0 -18.9515 -0.717128 4.83413 2.8722 0 -7.10543e-15 -15.0157 -0.398581 5.24835 8.6586 1.0176 -1.7016 -8.70037 2.13103 3.30857 4.5461 0 7.10543e-15 -17.4526 -0.363811 2.36916 2.506 0 7.10543e-15 -10.698 -0.0823385 2.39544 7.6901 0.6618 -3.9096 -4.44478 -9.06129 2.86276 3.2119 0 -7.10543e-15 -13.1382 -0.52225 4.53274 1.924 7.10543e-15 -7.10543e-15 -8.73894 -0.17229 4.55944 -4.0677 26.6109 -1.1234 1.13419 -2.96487 1.81745 -14.1772 2.84217e-14 8.88178e-16 68.4726 11.1434 -9.92322 -26.1234 0 -7.10543e-15 0.364787 0.0810888 25.0647 -27.7188 -7.10543e-15 1.77636e-15 6.44075 9.93128 10.0713 -2.2979 -0.4684 1.8313 -48.4595 47.5076 64.4168 -5.2953 1.42109e-14 0 29.7935 -15.9453 -2.41044 -3.0181 -7.10543e-15 -1.9984e-15 -2.18168 -4.8926 -20.536 -9.3793 0.2991 2.5924 18.9062 -2.36924 -4.27963 -4.3461 0 -3.55271e-15 41.1783 -2.37318 -7.04526 -2.1666 -7.10543e-15 4.44089e-16 45.324 -3.09162 -7.02047 -9.4769 0.8376 0.2947 17.7625 -5.08917 -4.15524 -4.772 3.55271e-15 0 61.5766 -7.10727 -12.0497 -2.8722 0 0 57.7069 -6.24438 -12.8242 -8.6586 1.0176 -1.7016 29.85 0.592988 -5.72605 -4.5461 0 -3.55271e-15 63.1799 -3.67701 -5.97572 -2.506 0 -8.88178e-16 56.4474 -2.94945 -6.36536 -7.6901 0.6618 -3.9096 24.9049 -10.3094 -5.30007 -3.2119 0 3.55271e-15 59.8256 -9.41519 -16.2913 -1.924 0 -3.55271e-15 55.5468 -8.15251 -16.9451 8.7379 -0.0029 0.0005 2.89742 -2.1792 17.4301 0 -46.6676 0 3.08473 15.4556 -4.67686 3.55271e-15 -40.1476 1.77636e-15 4.98025 -8.1726 6.28545 0 -8.8846 14.2294 0.0001 -1.98785e-16 3.18055e-15 -8.7379 0.0029 -0.0005 -1.89434 -42.5075 -12.2763 -1.77636e-15 -46.6676 0 -8.05554 25.0341 9.90367 0 -40.1476 0 -0.698443 19.4258 -14.2663 0 -8.8846 14.2294 1.59028e-15 1.19271e-15 -0 
24.1245 97.5439 1.17599 -8.07302 -5.02039 -6.20557 5.32907e-15 7.2397 1.77636e-15 -0.265199 2.01103 -5.38093 7.10543e-15 16.546 -1.33227e-15 -0.53654 5.93255 -10.5321 0 34.2149 0 0.736867 36.4836 0.134376 3.55271e-15 6.2923 1.42109e-14 8.69683 -1.33949 -1.44139 4.0639 26.6115 -1.1234 0.74952 -0.960926 7.78314 14.1772 2.84217e-14 0 -64.8328 38.4023 -5.87136 26.1234 0 7.10543e-15 -0.491061 0.153716 -34.7645 27.7188 0 0 3.05219 -11.1961 -9.44493 2.2979 -0.4685 1.8313 47.2981 49.5842 -62.6585 5.2953 1.42109e-14 3.55271e-15 -12.4739 -10.6651 -1.26021 3.0181 0 1.77636e-15 26.9774 -0.234825 12.513 9.3793 0.2991 2.5924 6.20038 -1.32239 0.403507 4.3461 0 0 -3.54195 0.253811 0.735915 2.1666 0 0 -7.69754 -0.0965423 1.11838 9.4769 0.8376 0.2947 2.92413 -4.15967 1.0401 4.772 0 -7.10543e-15 -18.2792 -0.661303 4.66826 2.8722 7.10543e-15 0 -14.3414 -0.354433 5.07983 8.6586 1.0176 -1.7016 -8.68944 2.13155 3.15816 4.5461 7.10543e-15 0 -16.9242 -0.342276 2.29954 2.506 7.10543e-15 -7.10543e-15 -10.1692 -0.069146 2.32375 7.6901 0.6618 -3.9096 -4.38084 -9.02013 2.57653 3.2119 0 -7.10543e-15 -12.6079 -0.481066 4.35245 1.924 0 0 -8.20749 -0.145032 4.37651 -4.0677 26.6109 -1.1234 1.17853 -2.9545 1.69087 -14.1772 0 -1.77636e-15 68.7667 11.3271 -10.008 -26.1234 0 -7.10543e-15 0.372556 0.0847616 25.6353 -27.7188 7.10543e-15 -3.55271e-15 6.11763 9.29715 10.4016 -2.2979 -0.4684 1.8313 -48.4595 47.5076 64.4168 -5.2953 -1.42109e-14 8.88178e-16 29.7935 -15.9453 -2.41046 -3.0181 0 0 -2.18167 -4.8926 -20.536 -9.3793 0.2991 2.5924 19.0741 -2.38183 -4.30403 -4.3461 0 1.77636e-15 41.3455 -2.39387 -7.06886 -2.1666 0 -8.88178e-16 45.4911 -3.11338 -7.04194 -9.4769 0.8376 0.2947 17.9292 -5.10126 -4.17996 -4.772 0 1.77636e-15 61.7407 -7.14206 -12.0686 -2.8722 0 8.88178e-16 57.8711 -6.2776 -12.8453 -8.6586 1.0176 -1.7016 30.0191 0.576004 -5.7476 -4.5461 -1.77636e-15 2.66454e-15 63.3493 -3.69472 -5.98466 -2.506 0 8.88178e-16 56.6167 -2.96599 -6.37631 -7.6901 0.6618 -3.9096 25.0696 -10.3245 -5.32338 -3.2119 1.77636e-15 1.77636e-15 59.9839 -9.46088 -16.3182 -1.924 -1.42109e-14 0 55.7053 -8.1961 -16.9752 8.7379 -0.0029 0.0005 2.72718 -1.93212 17.4189 0 -46.6676 0 3.15811 15.7797 -4.87611 0 -40.1476 0 5.00638 -8.46594 6.30415 0 -8.8846 14.2294 0.0001 -1.98785e-16 1.59028e-15 -8.7379 0.0029 -0.0005 -2.53248 -43.3425 -12.5227 -1.77636e-15 -46.6676 0 -8.42542 28.8329 11.0381 8.88178e-16 -40.1476 0 -1.5286 16.8135 -14.3409 -1.77636e-15 -8.8846 14.2294 -6.95746e-16 9.93923e-16 3.18055e-15 
24.1499 97.4352 1.39091 -7.91321 -5.31723 -6.01113 -1.77636e-15 7.2397 0 -0.343895 2.1409 -5.4999 3.55271e-15 16.546 -1.77636e-15 -0.350454 6.18457 -10.7005 -3.55271e-15 34.2149 0 0.760257 36.4551 0.100763 0 6.2923 0 8.81857 -1.18039 -1.73351 4.0639 26.6115 -1.1234 0.821895 -0.966674 7.7682 14.1772 0 -1.77636e-15 -65.1804 38.4 -5.24982 26.1234 0 -7.10543e-15 -0.474815 0.142717 -33.4586 27.7188 0 0 2.30566 -10.0942 -9.35485 2.2979 -0.4685 1.8313 47.2981 49.5842 -62.6585 5.2953 0 0 -12.18 -10.5988 -1.32706 3.0181 -1.42109e-14 -3.55271e-15 27.3217 -0.194045 12.3832 9.3793 0.2991 2.5924 6.12187 -1.32294 0.41802 4.3461 0 7.10543e-15 -3.4419 0.255073 0.715151 2.1666 0 7.10543e-15 -7.59752 -0.0938331 1.09824 9.4769 0.8376 0.2947 2.75115 -4.16279 1.05308 4.772 0 0 -18.3105 -0.66384 4.67598 2.8722 0 7.10543e-15 -14.372 -0.356384 5.0875 8.6586 1.0176 -1.7016 -8.96469 2.11662 3.1361 4.5461 0 0 -17.1 -0.349368 2.32273 2.506 -3.55271e-15 0 -10.3451 -0.0734697 2.3476 7.6901 0.6618 -3.9096 -4.58548 -9.01041 2.48527 3.2119 0 -7.10543e-15 -12.7979 -0.495604 4.41708 1.924 -7.10543e-15 0 -8.39791 -0.154619 4.44207 -4.0677 26.6109 -1.1234 1.07924 -2.95654 1.59384 -14.1772 2.84217e-14 8.88178e-16 69.1643 11.6262 -10.1941 -26.1234 0 7.10543e-15 0.381587 0.0891651 26.3052 -27.7188 -7.10543e-15 -1.77636e-15 5.88733 8.93538 10.7362 -2.2979 -0.4684 1.8313 -48.4595 47.5076 64.4168 -5.2953 1.42109e-14 8.88178e-16 29.7935 -15.9453 -2.41044 -3.0181 0 -4.44089e-16 -2.18167 -4.8926 -20.536 -9.3793 0.2991 2.5924 19.1746 -2.3894 -4.31861 -4.3461 0 -3.55271e-15 41.4456 -2.40628 -7.08295 -2.1666 0 0 45.5912 -3.12643 -7.05477 -9.4769 0.8376 0.2947 18.029 -5.10854 -4.19474 -4.772 3.55271e-15 0 61.8389 -7.1629 -12.0799 -2.8722 0 -8.88178e-16 57.9694 -6.29752 -12.8578 -8.6586 1.0176 -1.7016 30.1203 0.565805 -5.76047 -4.5461 -4.44089e-16 0 63.4506 -3.70533 -5.98998 -2.506 1.42109e-14 0 56.7181 -2.9759 -6.38284 -7.6901 0.6618 -3.9096 25.1682 -10.3336 -5.33731 -3.2119 0 -1.77636e-15 60.0787 -9.48826 -16.3342 -1.924 0 0 55.8001 -8.22222 -16.9932 8.7379 -0.0029 0.0005 2.54965 -1.784 17.4314 0 -46.6676 0 3.26456 16.3043 -5.09028 -3.55271e-15 -40.1476 1.77636e-15 5.02012 -8.88096 6.3279 0 -8.8846 14.2294 0.0001 1.98785e-16 1.59028e-15 -8.7379 0.0029 -0.0005 -3.15971 -44.1342 -12.741 -3.55271e-15 -46.6676 -1.42109e-14 -8.68596 33.7224 11.5121 0 -40.1476 -7.10543e-15 -2.12222 13.1924 -14.254 -3.55271e-15 -8.8846 14.2294 -3.97569e-16 0 -3.18055e-15 
